<?xml version="1.0" encoding="utf-8"?>
<!-- Generator: Adobe Illustrator 25.0.1, SVG Export Plug-In . SVG Version: 6.00 Build 0)  -->
<svg version="1.1" id="Layer_1" xmlns="http://www.w3.org/2000/svg" xmlns:xlink="http://www.w3.org/1999/xlink" x="0px" y="0px"
	 viewBox="0 0 357.2 122.8" style="enable-background:new 0 0 357.2 122.8;" xml:space="preserve">
<style type="text/css">
	.st0{fill:#2F5698;}
	.st1{fill:#FEC20E;}
	.st2{fill:#101010;}
	.st3{fill:#020202;}
	.st4{fill:none;}
	.st5{fill:#FFFFFF;}
</style>
<rect x="5.4" y="92.6" class="st0" width="345.5" height="20.9"/>
<path d="M5.6,23h31.1c15.1,0,21.7,7.5,21.7,16.3c0,6.7-3.5,11.4-8.5,13.5c4.7,1.7,10.2,6.1,10.2,14.1c0,10.3-7.7,18.6-23.3,18.6H5.6
	V23z M33.7,47.1c5,0,7.1-2.6,7.1-6c0-3.9-2.8-5.8-7.2-5.8H23.4v11.8H33.7z M23.4,73.2h9.4c6,0,8.6-2.6,8.6-7.1
	c0-3.9-2.4-6.7-8.2-6.7h-9.7V73.2z"/>
<path d="M233.2,23h18.4v23.4h19.1V23h18.4v62.5h-18.4V59.9h-19.1v25.6h-18.4V23z"/>
<path d="M315.1,36.5h-17.9V23h53.9v13.6h-17.7v49h-18.3V36.5z"/>
<g>
	<path class="st1" d="M175.5,41.6C175.5,41.6,175.5,41.6,175.5,41.6C175.5,41.6,175.5,41.6,175.5,41.6c1.6-1.6,1.6-4.1,0-5.7
		L144.7,5.1c-1.6-1.6-4.1-1.6-5.7,0L108.2,36c-1.6,1.6-1.6,4.1,0,5.7h0c0,0,0,0,0,0L139,72.5c0,0,0,0,0,0c0,0,0,0,0,0
		c1.6,1.6,4.1,1.6,5.7,0c0,0,0,0,0,0c0,0,0,0,0,0L175.5,41.6z"/>
	<path class="st2" d="M174.4,37.7L143,6.3c-0.6-0.6-1.6-0.6-2.3,0l-31.4,31.4c-0.6,0.6-0.6,1.6,0,2.3l31.4,31.4
		c0.6,0.6,1.6,0.6,2.3,0l31.4-31.4C175,39.3,175,38.3,174.4,37.7z M142.9,69.4c-0.6,0.6-1.5,0.6-2.1,0l-29.6-29.6
		c-0.6-0.6-0.6-1.5,0-2.1l29.6-29.6c0.7-0.7,1.4-0.7,2.1,0l29.6,29.6c0.6,0.6,0.6,1.5,0,2.1L142.9,69.4z"/>
	<path class="st3" d="M147.3,46c-7.8-1-7.1-4.2-7.1-4.2c0-3.3,10.5-4.1,10.5-4.1v-1.5c0,0,0,0,0,0v-1.6h1.5v-5.5
		c0-1.2-0.7-2.1-1.7-2.6l-1.8-4.4l-0.4-0.9l0-0.1c-0.2-0.4-0.5-0.6-0.9-0.6h-1h-9.1h-1c-0.4,0-0.8,0.3-1,0.6l0,0l-0.4,1l-1.7,4.2
		c-1.2,0.3-2.1,1.4-2.1,2.7v5.5h1.5v1.6c-0.3,0-0.5,0-0.6,0.1c-0.5,0.2-8.9,0.8-8.9,5.8c0,5.3,9,5.9,9,5.9c10.5,1.7,1,7.5,1,7.5
		l1.1,1.6c0,0,4.7-2.5,4.8-6.1c0.2-4.1-6.9-4.9-6.9-4.9c-7.8-1-7.1-4.2-7.1-4.2c0-3.3,10.5-4.1,10.5-4.1v-0.5h0v-2.6h12.3v1.6
		c-0.3,0-0.4,0-0.6,0.1c-0.5,0.2-8.9,0.8-8.9,5.8c0,5.3,9,5.9,9,5.9c10.5,1.7,1,7.5,1,7.5l1.1,1.6c0,0,4.7-2.5,4.8-6.1
		C154.4,46.9,147.3,46,147.3,46z M141.4,26.1c0-0.2-0.3-0.3-0.6-0.3h-3.2c-0.3,0-0.6,0.2-0.6,0.3l0,0.8l-2.4,0l1.7-4.3l0.2-0.5h0.5
		h9.4h0.5l0.2,0.5l1.7,4.3h-7.5L141.4,26.1z"/>
</g>
<path class="st4" d="M95.6,36H87v13.4h8.5c6.1,0,8.3-2.5,8.3-6.7C103.8,38.4,101.2,36,95.6,36z"/>
<path d="M105.5,38.6c0-1.5,0.6-2.9,1.6-3.9l7.7-7.7c-3.5-2.3-8.4-3.7-14.6-3.7h-31v62.5H87V62.1h6.5c8.1,0,9.4,3,9.4,8.4v1.6
	c0,6.4,0.3,11,1.3,13.7h17.5c-0.7-2.7-0.8-7.8-0.8-11.6v-2.6c0-10.6-4.2-14.8-8.2-16.1c1.5-0.6,3-1.5,4.5-2.8l-10.1-10.1
	C106.1,41.4,105.5,40,105.5,38.6z M95.5,49.3H87V36h8.6c5.6,0,8.2,2.4,8.2,6.6C103.8,46.8,101.6,49.3,95.5,49.3z"/>
<path d="M141.8,74.9c-1.4,0-2.8-0.5-3.9-1.6l-5.8-5.8v18.2h18.4V68.5l-5,5C144.6,74.4,143.2,74.9,141.8,74.9z"/>
<path d="M192.1,62.7h11.5v0.4c0,4.1-1.6,10.9-10.9,10.9c-10.1,0-13.1-9.6-13.1-19.4c0-10,2.6-19.6,13-19.6c7.4,0,9.7,4.2,10.6,7.5
	h18.2c-1.1-9.6-9.8-20.4-28.7-20.4c-9.1,0-16.3,2.6-21.6,7.2l5.4,5.4c2.1,2.1,2.1,5.6,0,7.8l-15.7,15.7c1.1,16,10.7,28.8,28.7,28.8
	c8.7,0,14.8-2.3,18.3-7c0.2,1.4,0.7,4,1.2,5.7h12.3V49.9h-29.2V62.7z"/>
<path class="st3" d="M139.2,23.2c-0.8,0-1.5,0.7-1.5,1.5c0,0.8,0.7,1.5,1.5,1.5c0.8,0,1.5-0.7,1.5-1.5
	C140.7,23.8,140,23.2,139.2,23.2z"/>
<g>
	<path class="st5" d="M83-37.5h5.6c2.5,0,3.7,1.1,3.7,2.8c0,1.4-0.9,2.1-1.8,2.4c1,0.3,2.2,1,2.2,2.7c0,2.2-1.8,3.3-4.1,3.3H83
		V-37.5z M88.2-32.9c1.5,0,2.2-0.6,2.2-1.5c0-1.2-0.9-1.6-2.2-1.6h-3.4v3.1H88.2z M84.8-27.8h3.5c1.3,0,2.5-0.4,2.5-1.9
		c0-1.2-1-1.9-2.6-1.9h-3.4V-27.8z"/>
	<path class="st5" d="M97-31v4.7h-1.8v-11.2h5.5c2.4,0,3.9,1.1,3.9,3.1c0,1.4-0.7,2.3-2,2.7c0.7,0.2,1.7,0.7,1.7,2.7v0.5
		c0,0.8,0,1.8,0.1,2.3h-1.9c-0.2-0.5-0.2-1.3-0.2-2.3V-29c0-1.5-0.6-2-2.5-2H97z M97-32.5h3.2c1.7,0,2.4-0.6,2.4-1.8
		c0-1.1-0.8-1.7-2.4-1.7H97V-32.5z"/>
	<path class="st5" d="M109.1-37.5v11.2h-1.9v-11.2H109.1z"/>
	<path class="st5" d="M122.9-26.3h-1.4c-0.1-0.3-0.1-1.1-0.1-1.5c-0.7,1.1-1.8,1.8-4,1.8c-3.6,0-5.7-2.4-5.7-5.8
		c0-3.3,2.2-5.9,6-5.9c3.4,0,4.9,1.8,5.3,3.4H121c-0.4-0.9-1.3-1.9-3.4-1.9c-2.7,0-4.1,1.9-4.1,4.3c0,2.5,1.4,4.4,4,4.4
		c2.2,0,3.5-1.1,3.5-3.1V-31h-3.4v-1.5h5.2V-26.3z"/>
	<path class="st5" d="M125.7-37.5h1.9v4.5h6.4v-4.5h1.9v11.2h-1.9v-5.2h-6.4v5.2h-1.9V-37.5z"/>
	<path class="st5" d="M141.8-36h-4.2v-1.5h10.3v1.5h-4.2v9.7h-1.9V-36z"/>
	<path class="st5" d="M155.1-29.6c0.4,1.2,1.3,2.1,3.4,2.1c2.1,0,2.9-0.8,2.9-1.7c0-1-0.6-1.6-3.4-2.1c-3.5-0.6-4.3-1.7-4.3-3.2
		c0-2,1.9-3.2,4.4-3.2c3.7,0,4.6,1.9,4.7,3.1h-1.9c-0.2-0.7-0.7-1.7-2.9-1.7c-1.5,0-2.5,0.5-2.5,1.5c0,0.9,0.5,1.4,2.9,1.8
		c4.1,0.7,4.8,2,4.8,3.5c0,1.8-1.4,3.4-4.9,3.4c-3.2,0-4.8-1.5-5.2-3.5H155.1z"/>
	<path class="st5" d="M167.9-29.5l-1.3,3.2h-1.9l4.8-11.2h2.3l5,11.2h-2l-1.4-3.2H167.9z M172.7-31c-1.3-3-1.9-4.4-2.2-5.2h0
		c-0.2,0.8-1,2.6-2,5.2H172.7z"/>
	<path class="st5" d="M180.3-37.5h6.8v1.5h-5.4v3.4h5v1.5h-5v4.8h-1.5V-37.5z"/>
	<path class="st5" d="M197.7-31.4h-6.6v3.6h7.3l-0.2,1.5h-8.9v-11.2h8.8v1.5h-7v3h6.6V-31.4z"/>
	<path class="st5" d="M203.8-36h-4.2v-1.5h10.3v1.5h-4.2v9.7h-1.9V-36z"/>
	<path class="st5" d="M215.7-26.3v-4.2c0-0.1,0-0.2-0.1-0.3l-4.7-6.7h2.2c1.3,1.9,3.1,4.5,3.6,5.4c0.6-1,2.3-3.5,3.6-5.4h2l-4.7,6.8
		c-0.1,0.1-0.1,0.1-0.1,0.3v4.2H215.7z"/>
	<path class="st5" d="M229.1-29.6c0.4,1.2,1.3,2.1,3.4,2.1c2.1,0,2.9-0.8,2.9-1.7c0-1-0.6-1.6-3.4-2.1c-3.5-0.6-4.3-1.7-4.3-3.2
		c0-2,1.9-3.2,4.4-3.2c3.7,0,4.6,1.9,4.7,3.1H235c-0.2-0.7-0.7-1.7-2.9-1.7c-1.5,0-2.5,0.5-2.5,1.5c0,0.9,0.5,1.4,2.9,1.8
		c4.1,0.7,4.8,2,4.8,3.5c0,1.8-1.4,3.4-4.9,3.4c-3.2,0-4.8-1.5-5.2-3.5H229.1z"/>
	<path class="st5" d="M250.2-29.6c-0.6,1.9-2.1,3.6-5.3,3.6c-3.8,0-5.8-2.6-5.8-5.8c0-3.2,2.2-5.9,5.9-5.9c3.3,0,4.9,1.8,5.3,3.6
		h-1.9c-0.4-1-1.3-2.1-3.4-2.1c-2.5,0-3.9,1.8-3.9,4.3c0,2.4,1.4,4.4,3.9,4.4c2,0,2.8-0.8,3.4-2.1H250.2z"/>
	<path class="st5" d="M252.4-37.5h1.9v4.5h6.4v-4.5h1.9v11.2h-1.9v-5.2h-6.4v5.2h-1.9V-37.5z"/>
	<path class="st5" d="M276.9-31.9c0,3.2-2.1,5.9-6,5.9c-3.7,0-5.9-2.6-5.9-5.9c0-3.1,2.3-5.8,6-5.8C274.6-37.8,276.9-35,276.9-31.9z
		 M267-32c0,2.3,1.4,4.4,4,4.4c2.6,0,3.9-2,3.9-4.3c0-2.2-1.3-4.3-4-4.3C268.4-36.2,267-34.2,267-32z"/>
	<path class="st5" d="M290.6-31.9c0,3.2-2.1,5.9-6,5.9c-3.7,0-5.9-2.6-5.9-5.9c0-3.1,2.3-5.8,6-5.8C288.3-37.8,290.6-35,290.6-31.9z
		 M280.7-32c0,2.3,1.4,4.4,4,4.4c2.6,0,3.9-2,3.9-4.3c0-2.2-1.3-4.3-4-4.3C282.1-36.2,280.7-34.2,280.7-32z"/>
	<path class="st5" d="M293-37.5h1.8v9.7h6.7l-0.3,1.5H293V-37.5z"/>
</g>
<g>
	<path class="st5" d="M70.7,96.7h4.8c3.6,0,6,2.4,6,6.1c0,3.6-2.3,6.4-6,6.4h-4.7V96.7z M73,107.2h2.2c2.6,0,3.7-1.9,3.7-4.4
		c0-2.2-1.1-4.2-3.7-4.2H73V107.2z"/>
	<path class="st5" d="M86.1,104v5.2h-2.3V96.7h5.3c2.7,0,4.1,1.5,4.1,3.4c0,1.7-0.9,2.6-1.9,2.9c0.8,0.2,1.7,0.9,1.7,3.1v0.6
		c0,0.8,0,1.8,0.2,2.4h-2.2c-0.2-0.5-0.2-1.5-0.2-2.8v-0.2c0-1.5-0.4-2.2-2.5-2.2H86.1z M86.1,102.1h2.4c1.6,0,2.3-0.6,2.3-1.8
		c0-1.1-0.7-1.7-2.2-1.7h-2.5V102.1z"/>
	<path class="st5" d="M98,96.7v12.5h-2.3V96.7H98z"/>
	<path class="st5" d="M104.1,109.2l-4.4-12.5h2.5l2,5.9c0.6,1.8,1.1,3.4,1.4,4.6h0c0.3-1.1,0.8-2.8,1.4-4.6l2.1-6h2.4l-4.6,12.5
		H104.1z"/>
	<path class="st5" d="M121.4,103.6h-6v3.6h6.6l-0.3,1.9h-8.6V96.7h8.6v1.9h-6.3v3.1h6V103.6z"/>
	<path class="st5" d="M126.4,104v5.2h-2.3V96.7h5.3c2.7,0,4.1,1.5,4.1,3.4c0,1.7-0.9,2.6-1.9,2.9c0.8,0.2,1.7,0.9,1.7,3.1v0.6
		c0,0.8,0,1.8,0.2,2.4h-2.2c-0.2-0.5-0.2-1.5-0.2-2.8v-0.2c0-1.5-0.4-2.2-2.5-2.2H126.4z M126.4,102.1h2.4c1.6,0,2.3-0.6,2.3-1.8
		c0-1.1-0.7-1.7-2.2-1.7h-2.5V102.1z"/>
	<path class="st5" d="M141.8,105.6c0.3,1.3,1.2,2,2.8,2c1.6,0,2.3-0.7,2.3-1.7c0-1.1-0.6-1.6-2.9-2.2c-3.2-0.8-4.1-1.9-4.1-3.6
		c0-2.1,1.5-3.5,4.4-3.5c3.2,0,4.5,1.8,4.6,3.5h-2.4c-0.2-0.9-0.7-1.7-2.4-1.7c-1.2,0-2,0.5-2,1.5c0,1,0.6,1.4,2.7,1.8
		c3.6,0.9,4.3,2.2,4.3,3.9c0,2.2-1.6,3.7-4.8,3.7c-3.2,0-4.7-1.6-5-3.8H141.8z"/>
	<path class="st5" d="M153.8,106l-1.1,3.2h-2.3l4.3-12.5h2.9l4.5,12.5h-2.5l-1.1-3.2H153.8z M157.9,104c-1-2.8-1.6-4.5-1.9-5.6h0
		c-0.3,1.2-1,3.2-1.8,5.6H157.9z"/>
	<path class="st5" d="M163.8,96.7h8.5v1.9h-6.2v3.4h5.8v1.9h-5.8v5.2h-2.3V96.7z"/>
	<path class="st5" d="M182.6,103.6h-6v3.6h6.6l-0.3,1.9h-8.6V96.7h8.6v1.9h-6.3v3.1h6V103.6z"/>
	<path class="st5" d="M188.2,98.6h-3.9v-1.9h10.1v1.9h-3.9v10.5h-2.3V98.6z"/>
	<path class="st5" d="M199.9,109.2v-4.5c0-0.1,0-0.3-0.1-0.4l-4.3-7.6h2.6c1,1.9,2.5,4.7,3.1,5.9c0.5-1.2,2.1-4.1,3.1-5.9h2.5
		l-4.4,7.6c0,0.1-0.1,0.1-0.1,0.4v4.5H199.9z"/>
	<path class="st5" d="M214,105.6c0.3,1.3,1.2,2,2.8,2c1.6,0,2.3-0.7,2.3-1.7c0-1.1-0.6-1.6-2.9-2.2c-3.2-0.8-4.1-1.9-4.1-3.6
		c0-2.1,1.5-3.5,4.4-3.5c3.2,0,4.5,1.8,4.6,3.5h-2.4c-0.2-0.9-0.7-1.7-2.4-1.7c-1.2,0-2,0.5-2,1.5c0,1,0.6,1.4,2.7,1.8
		c3.6,0.9,4.3,2.2,4.3,3.9c0,2.2-1.6,3.7-4.8,3.7c-3.2,0-4.7-1.6-5-3.8H214z"/>
	<path class="st5" d="M234.1,105.4c-0.5,2.3-2.2,3.9-5.2,3.9c-3.9,0-5.7-2.8-5.7-6.3c0-3.4,1.9-6.5,5.8-6.5c3.2,0,4.8,1.9,5.1,3.9
		h-2.3c-0.3-1.1-1.1-2.1-2.9-2.1c-2.4,0-3.3,2.2-3.3,4.5c0,2.2,0.9,4.6,3.4,4.6c1.8,0,2.5-1.2,2.8-2H234.1z"/>
	<path class="st5" d="M236.3,96.7h2.3v5h5.5v-5h2.3v12.5h-2.3v-5.5h-5.5v5.5h-2.3V96.7z"/>
	<path class="st5" d="M260.8,102.9c0,3.5-2,6.5-6,6.5c-3.8,0-5.9-2.8-5.9-6.4c0-3.6,2.2-6.4,6-6.4
		C258.5,96.5,260.8,99.1,260.8,102.9z M251.3,102.9c0,2.5,1.2,4.5,3.5,4.5c2.6,0,3.5-2.1,3.5-4.5c0-2.5-1.1-4.5-3.5-4.5
		C252.4,98.4,251.3,100.4,251.3,102.9z"/>
	<path class="st5" d="M274.5,102.9c0,3.5-2,6.5-6,6.5c-3.8,0-5.9-2.8-5.9-6.4c0-3.6,2.2-6.4,6-6.4
		C272.2,96.5,274.5,99.1,274.5,102.9z M265,102.9c0,2.5,1.2,4.5,3.5,4.5c2.6,0,3.5-2.1,3.5-4.5c0-2.5-1.1-4.5-3.5-4.5
		C266.1,98.4,265,100.4,265,102.9z"/>
	<path class="st5" d="M276.9,96.7h2.3v10.5h6.3l-0.3,1.9h-8.4V96.7z"/>
</g>
</svg>
